/* XPM */
static char *_78e7b9a83824defffa68ac315a2ded0P3S9RWRX4aofgLmC[] = {
/* columns rows colors chars-per-pixel */
"32 32 35 1 ",
"  c None",
". c #2F213C",
"X c #30213D",
"o c #30223E",
"O c #342442",
"+ c #342543",
"@ c #382F41",
"# c #382748",
"$ c #3A294A",
"% c #3A294B",
"& c #3C2A4D",
"* c #41364C",
"= c #43384E",
"- c #423F4F",
"; c #453A51",
": c #4A4152",
"> c #4A4253",
", c #4B4254",
"< c #4C4354",
"1 c #4C4355",
"2 c #51485B",
"3 c #52485B",
"4 c #574D62",
"5 c #584D62",
"6 c #584E62",
"7 c #5B5065",
"8 c #5B5066",
"9 c #575369",
"0 c #5E5369",
"q c #685A7B",
"w c #6F6181",
"e c #706282",
"r c #786989",
"t c #77718E",
"y c #807090",
/* pixels */
"  ------------------------------",
" -9999999-99999999-9999999-99999",
"-99999999-99999999-9999999-99999",
"-9999tttt-tttttttt-ttttttt-ttttt",
"-999tt--------------------------",
"-999t---------------------------",
"-999t&&&&&&&&&&&&&&&&&&&&&&&&&&&",
"-999t&yyyyyy&0000000&yyyyyy&yyyy",
"-999t&000000&0000000&000000&0000",
"-----&000000&0000000&;;;;;;&0000",
"-999t&&&&&&&&&&&&&&&&&&&&&&&&&&&",
"-999t&000&000000&yyyyyy&000000&y",
"-999t&000&000000&000000&000000&0",
"-999t&;;;&000000&000000&000000&;",
"-----&&&&&&&&&&&&&&&&&&&&&&&&&&&",
"-999t&yyyyyy&0000000&000000&yyyy",
"-999t&000000&0000000&000000&0000",
"-999t&;;;;;;&0000000&;;;;;;&0000",
"-999t&&&&&&&&&&&&&&&&&&&&&&&&&&&",
"-999t&yyy&000000&yyyyyy&000000&y",
"-999t&888%888888%888888%888888%8",
"-----&===%888888%888888%888888%=",
"-999t&%%%%%%%%%%%%%%%%%%%%%%%%%%",
"-999t&664466#rrrrrrr#666666#rrrr",
"-999t&664466#6666666#666666#6666",
"-999t&664466#*******#666666#****",
"-999t&++++++++++++++++++++++++++",
"-999t&eew+333333+eeeeee+eeeeee+3",
"-----&333+333333+333333+333333+3",
"-999t&11>.,11111o@@@@@@o111111o1",
"-999t&ooo.oooooooooooooooooooooo",
"                                "
};
