/* XPM */
static char *c4278a190efc4363af162c76e2f1538bE8fPmdv24XPs4fEh[] = {
/* columns rows colors chars-per-pixel */
"32 32 21 1 ",
"  c None",
". c #342543",
"X c #382F41",
"o c #382748",
"O c #3A294B",
"+ c #3C2A4D",
"@ c #41364C",
"# c #43384E",
"$ c #423F4F",
"% c #453A51",
"& c #4C4355",
"* c #52485B",
"= c #584E62",
"- c #5B5066",
"; c #575369",
": c #5E5369",
"> c #685A7B",
", c #706282",
"< c #786989",
"1 c #77718E",
"2 c #807090",
/* pixels */
"$$$$$$$$$$$$$$$$$$$$$$$$$$$$$$$$",
";$;;;;;;$;;;;;;;;$;;;;;;;$;;;;;;",
";$;;;;;;$;;;;;;;;$;;;;;;;$;;;;;;",
"1$111111$11111111$1111111$111111",
"$$$$$$$$$$$$$$$$$$$$$$$$$$$$$$$$",
"$$$$$$$$$$$$$$$$$$$$$$$$$$$$$$$$",
"++++++++++++++++++++++++++++++++",
"2+222222222+:::::::+222222+22222",
":+:::::::::+:::::::+::::::+:::::",
":+%%%%%%%%%+:::::::+%%%%%%+:::::",
"++++++++++++++++++++++++++++++++",
"2222+:::+::::::+222222+::::::+22",
"::::+:::+::::::+::::::+::::::+::",
"%%%%+%%%+::::::+::::::+::::::+%%",
"++++++++++++++++++++++++++++++++",
"2+222222222+:::::::+::::::+22222",
":+:::::::::+:::::::+::::::+:::::",
":+%%%%%%%%%+:::::::+%%%%%%+:::::",
"++++++++++++++++++++++++++++++++",
"2222+222+::::::+222222+::::::+22",
"----O---O------O------O------O--",
"####O###O------O------O------O##",
"OOOOOOOOOOOOOOOOOOOOOOOOOOOOOOOO",
"<o=========o<<<<<<<o======o<<<<<",
"=o=========o=======o======o=====",
"@o=========o@@@@@@@o======o@@@@@",
"................................",
"****.,,,.******.,,,,,,.,,,,,,.**",
"****.***.******.******.******.**",
"&&&& &&& &&&&&& XXXXXX &&&&&& &&",
"&&&& &&& &&&&&& XXXXXX &&&&&& &&",
"                                "
};
