/* XPM */
static char *_027ec2a699c40a3e6a2bcd934d3d0f8JAiUZ1Pjvaf1bIoQ[] = {
/* columns rows colors chars-per-pixel */
"32 32 3 1 ",
"  c #40264D",
". c #563767",
"X c #644574",
/* pixels */
"                                ",
"   XXXX     XXXXXXXXXXXXXXXXX   ",
"  X...X    X.........XXX.....X  ",
" X...XX  XXX.........X X......X ",
" X..XX  XX...........X X......X ",
" X.XX  XX............XXX......X ",
" XXX  XX......................X ",
"     XX.......................X ",
"   XXX........................X ",
"   X..........................X ",
"  XX..........................X ",
" XX...........................X ",
" X............................X ",
" X............................X ",
" X............................X ",
" X............................X ",
" X....................XXX.....X ",
" X..................XXX XX....X ",
" X..................X    X....X ",
" X..................XXX XX....X ",
" X....................XXX.....X ",
" X............................X ",
" X............................X ",
" X............................X ",
" X............................X ",
" X............................X ",
" X..XXX.......................X ",
" X..X X.......................X ",
" XX.XXX.......................X ",
"  XX.........................X  ",
"   XXXXXXXXXXXXXXXXXXXXXXXXXX   ",
"                                "
};
