/* XPM */
static char *_08f5f943cd84e1b96f64a7362a1f09aoOLbQpsDER2q3Ts3[] = {
/* columns rows colors chars-per-pixel */
"32 32 37 1 ",
"  c None",
". c #2F213C",
"X c #30213D",
"o c #30223E",
"O c #342442",
"+ c #342543",
"@ c #382F41",
"# c #382748",
"$ c #3A294A",
"% c #3A294B",
"& c #3C2A4D",
"* c #40364B",
"= c #40364C",
"- c #41364C",
"; c #43384E",
": c #423F4F",
"> c #453A51",
", c #4A4152",
"< c #4A4253",
"1 c #4B4254",
"2 c #4C4354",
"3 c #4C4355",
"4 c #51485B",
"5 c #52485B",
"6 c #574D62",
"7 c #584D62",
"8 c #584E62",
"9 c #5B5065",
"0 c #5B5066",
"q c #575369",
"w c #5E5369",
"e c #685A7B",
"r c #6F6181",
"t c #706282",
"y c #786989",
"u c #77718E",
"i c #807090",
/* pixels */
"::::::::::::::::::::::::::::::  ",
"qqqq:qqqqqqqq:qqqqqqqq:qqqqqqq: ",
"qqqq:qqqqqqqq:qqqqqqqq:qqqqqqqq:",
"uuuu:uuuuuuuu:uuuuuuuu:uuuuqqqq:",
"::::::::::::::::::::::::::uuqqq:",
":::::::::::::::::::::::::::uqqq:",
"&&&&&&&&&&&&&&&&&&&&&&&&&&&uqqq:",
"iiii&wwwwww&iiiiii&iiiiii&&uqqq:",
"wwww&wwwwww&wwwwww&wwwwww&&uqqq:",
">>>>&wwwwww&>>>>>>&wwwwww&&:::::",
"&&&&&&&&&&&&&&&&&&&&&&&&&&&uqqq:",
"&iiiiii&wwwwww&iiiiiii&www&uqqq:",
"&wwwwww&wwwwww&wwwwwww&www&uqqq:",
"&wwwwww&wwwwww&>>>>>>>&>>>&uqqq:",
"&&&&&&&&&&&&&&&&&&&&&&&&&&&:::::",
"wwww&iiiiii&wwwwww&iiiiii&&uqqq:",
"wwww&wwwwww&wwwwww&wwwwww&&uqqq:",
"wwww&>>>>>>&wwwwww&wwwwww&&uqqq:",
"&&&&&&&&&&&&&&&&&&&&&&&&&&&uqqq:",
"&wwwwww&iiiiii=uiiiiii&iii&uqqq:",
"%000000%000099%0000000$999&uqqq:",
"%;;;;;;%000099%:;;;;;;$899&:::::",
"%%%%%%%%%%%%$$$$%%%%%%%%&%&uqqq:",
"yyyy#yyyyyy#yyyyyy#888668#&uqqq:",
"7777#777599#888888#888888#&uqqq>",
"--;;#777998#888988#;&,@&-#&uqqq,",
"OOOO++++++++O#++++++@+OO++&uqqq:",
"O555555+ttttet+5444444Ortt&uqqq:",
"+444555+555555+5444444O444%:::::",
"O311331O@@@@@@o3333333.333%uqqq:",
"..O..O.Ooooooooooooo....O.%uqqq:",
"                                "
};
