/* XPM */
static char *result[] = {
/* columns rows colors chars-per-pixel */
"32 32 5 1 ",
"  c #3C2A4D",
". c #423F4F",
"X c #575369",
"o c #77718E",
"O c None",
/* pixels */
"ooXXXOOOOOOOOOOOOOOOOOOOOOOOOOOO",
"oXXXXOOOOOOOOOOOOOOOOOOOOOOOOOOO",
"oXXXXOOOOOOOOOOOOOOOOOOOOOOOOOOO",
"oXXXXOOOOOOOOOOOOOOOOOOOOOOOOOOO",
"oXXX.OOOOOOOOOOOOOOOOOOOOOOOOOOO",
"oXXX.OOOOOOOOOOOOOOOOOOOOOOOOOOO",
"oXXX.OOOOOOOOOOOOOOOOOOOOOOOOOOO",
".....OOOOOOOOOOOOOOOOOOOOOOOOOOO",
"oXXX.OOOOOOOOOOOOOOOOOOOOOOOOOOO",
"oXXX.OOOOOOOOOOOOOOOOOOOOOOOOOOO",
"oXXX.OOOOOOOOOOOOOOOOOOOOOOOOOOO",
"oXXX.OOOOOOOOOOOOOOOOOOOOOOOOOOO",
"oXXX.OOOOOOOOOOOOOOOOOOOOOOOOOOO",
"oXXX.OOOOOOOOOOOOOOOOOOOOOOOOOOO",
".....OOOOOOOOOOOOOOOOOOOOOOOOOOO",
"oXXX.OOOOOOOOOOOOOOOOOOOOOOOOOOO",
"oXXX.OOOOOOOOOOOOOOOOOOOOOOOOOOO",
"oXXX.OOOOOOOOOOOOOOOOOOOOOOOOOOO",
"oXXX.OOOOOOOOOOOOOOOOOOOOOOOOOOO",
"oXXX.OOOOOOOOOOOOOOOOOOOOOOOOOOO",
"oXXX.OOOOOOOOOOOOOOOOOOOOOOOOOOO",
".....OOOOOOOOOOOOOOOOOOOOOOOOOOO",
"oXXX.OOOOOOOOOOOOOOOOOOOOOOOOOOO",
"oXXX.OOOOOOOOOOOOOOOOOOOOOOOOOOO",
"oXXX.OOOOOOOOOOOOOOOOOOOOOOOOOOO",
"oXXX.OOOOOOOOOOOOOOOOOOOOOOOOOOO",
"oXXX.OOOOOOOOOOOOOOOOOOOOOOOOOOO",
".....OOOOOOOOOOOOOOOOOOOOOOOOOOO",
"oXXX.OOOOOOOOOOOOOOOOOOOOOOOOOOO",
"oXXX.OOOOOOOOOOOOOOOOOOOOOOOOOOO",
"oXXX.OOOOOOOOOOOOOOOOOOOOOOOOOOO",
"oXXX.OOOOOOOOOOOOOOOOOOOOOOOOOOO"
};
