/* XPM */
static char *backg_10[] = {
/* columns rows colors chars-per-pixel */
"64 48 2 1 ",
"  c #4B4537",
". c #585040",
/* pixels */
"................................................................",
"................................................................",
"................................................................",
"................................................................",
"............................    ................................",
"............................... ..... ..........................",
"..................................... ..........................",
"................................................................",
".............................................. .................",
".............................................. .................",
".............................................. .................",
"................................................................",
"................ ................ .  ...........................",
"................ ...............................................",
"................ ...................  ..........................",
"......  . ..        ................ ...........    .. .  ......",
"..............................  ................................",
"............................... ................................",
"................................................................",
"......  .. ..................................... ...............",
"................................................       .........",
"..... ................................................ .........",
"..................... ..........................................",
".......................... .............. . ..  ................",
"..................  . .   ......................................",
".................. .............................................",
".................. .. ............................... ..........",
".................. .. ...............................     ......",
".................. .................................. ... ......",
".................. ............. ........................ ......",
".................. ............. .............. ......... ......",
"................................        .. ..   ......... ......",
"............. ...............................   ................",
"........... . ................................. ................",
"...........   ..................  .  .. ....... ................",
"............. ................................. ................",
"............. ................................. ................",
".............................   ............... ................",
"............................................... ........... ....",
"............. . .    .......................... ................",
"................ ............................... ...............",
"............................... ................ ...............",
"........................ ..     ................................",
"................................................ ...............",
"................................................ ...............",
"................................................................",
"................................................................",
"................................................................"
};
