/* XPM */
static char *result[] = {
/* columns rows colors chars-per-pixel */
"32 32 11 1 ",
"  c None",
". c #2F2921",
"X c #94784D",
"o c #6E5939",
"O c #5E4B2E",
"+ c #7D6643",
"@ c #624E30",
"# c #4D4335",
"$ c #878792",
"% c #65656E",
"& c black",
/* pixels */
"                                ",
"                                ",
"                                ",
"                                ",
"              .....             ",
"           ...XXXXX...          ",
"          .XXXoooooXXX.         ",
"         .XoooOOOOOoooX.        ",
"         .XooOOOOOOOooX.        ",
"         .+oooOOOOOooo+.        ",
"        .@#+++ooooo+++#@.       ",
"        .@@###+++++###@@.       ",
"        .@+OX@#####@@O+@.       ",
"       .$.XOX+@@OX++XOX.$.      ",
"       .%$...+++OXXX...$%.      ",
"       ..%$$$..+OX..$$$%..      ",
"       .@.%%%$$...$$%%%.@.      ",
"       .@X...%%$$$%%...+@.      ",
"       .@+XOX..%%%..XOX+@.      ",
"       ...+O+++...++XOX...      ",
"        .$.OX+++OX+++O.$.       ",
"         .$..XXXOX++..$.        ",
"         .%%$..XOX..$%%.        ",
"          ..%%$...$%%..         ",
"            ..%%%%%..           ",
"              .....             ",
"                                ",
"                                ",
"                                ",
"                                ",
"                                ",
"                                "
};
