/* XPM */
static char *result[] = {
/* columns rows colors chars-per-pixel */
"32 32 15 1 ",
"  c #0B1014",
". c #222A2D",
"X c #363E40",
"o c #495153",
"O c #515A5B",
"+ c #545E60",
"@ c #6F7879",
"# c #7B8485",
"$ c #A2ACAD",
"% c #A8B1B3",
"& c #B5BFC0",
"* c #D5E0E3",
"= c #E7F1F4",
"- c white",
"; c None",
/* pixels */
";;;;;;;;;;;;;;;;;;;;;;;;;;;;;;;;",
";;;;;;;;;;;;;;;;;;;;;;;   ;;;;;;",
";;;;;;;;;;;;;;;;;;;;;; --= ;;;;;",
";;;;;;;;;;;;;;;;;;;;; ===& ;;;;;",
";;;;;;;;;;;;;;;;;;;; =*$&&= ;;;;",
";;;;;;;;;;;;;;;;;;; =*@+O@$* ;;;",
";;;;;;;;;;;;;;;;;  *$@oX Xoo ;;;",
";;;;;;;;;;;;;;;; =*@O   ;   ;;;;",
";;;;;;;;;;;;;;  *@O  ;;;;;;;;;;;",
";;;;;;;;;;;;; =*@  ;;;;;;;;;;;;;",
";;;;;; ;;;;; =*@ ;;;;;;;;;;;;;;;",
";;;;;;;;;;;; *@ ;;;;;;;;;;;;;;;;",
";;;;;;;; ;;; @ ;;;;;;;;;;;;;;;;;",
";;;;;;; * ;;; ;;;;;;;;;;;;;;;;;;",
";;;;;;; $ ; ;;;;;;;;;;;;;;;;;;;;",
";;;; ;;; ;;;; ;;;;;;;;;;;;;;;;;;",
";;;;;;;;;;;; # ;;;;;;;;;;;;;;;;;",
";;;;;;; ;;;;; ;;;;;;;;;;;;;;;;;;",
";;;;;;;  ;; ;;;;;;;;;;;;;;;;;;;;",
";;;;;;; -  & ;;;;;;;;;;;;;;;;;;;",
";;;;;;;; -&# ;;;;;;;;;;;;;;;;;;;",
";;;;;;;; =&# ;;;;;;;;;;;;;;;;;;;",
";;;;;;;; =$O ;;;;;;;;;;;;;;;;;;;",
";;;;;;;; =$O ;;;;;;;;;;;;;;;;;;;",
";;;;;;;; =*@O ;;;;;;;;;;;;;;;;;;",
";;;;;;;; *%$+. ;;;;;;;;;;;;;;;;;",
";;;;;;;; =*=&## ;;;;;;;;;;;;;;;;",
";;;;;;; =*%**$O ;;;;;;;;;;;;;;;;",
";;;;;;; *%@%$@X ;;;;;;;;;;;;;;;;",
";;;;;;; %@X oX ;;;;;;;;;;;;;;;;;",
";;;;;;;;   ;  ;;;;;;;;;;;;;;;;;;",
";;;;;;;;;;;;;;;;;;;;;;;;;;;;;;;;"
};
